<?xml version="1.0" encoding="UTF-8" standalone="no"?>
<!-- Created with Inkscape (http://www.inkscape.org/) -->

<svg
   xmlns:dc="http://purl.org/dc/elements/1.1/"
   xmlns:cc="http://creativecommons.org/ns#"
   xmlns:rdf="http://www.w3.org/1999/02/22-rdf-syntax-ns#"
   xmlns:svg="http://www.w3.org/2000/svg"
   xmlns="http://www.w3.org/2000/svg"
   xmlns:sodipodi="http://sodipodi.sourceforge.net/DTD/sodipodi-0.dtd"
   xmlns:inkscape="http://www.inkscape.org/namespaces/inkscape"
   width="144.49777mm"
   height="143.55153mm"
   viewBox="0 0 511.99998 508.64715"
   id="svg2"
   version="1.1"
   inkscape:version="0.91 r13725"
   sodipodi:docname="Logo.svg">
  <defs
     id="defs4" />
  <sodipodi:namedview
     id="base"
     pagecolor="#96c927"
     bordercolor="#666666"
     borderopacity="1.0"
     inkscape:pageopacity="0"
     inkscape:pageshadow="2"
     inkscape:zoom="0.98994949"
     inkscape:cx="198.434"
     inkscape:cy="148.82535"
     inkscape:document-units="px"
     inkscape:current-layer="g4147"
     showgrid="false"
     inkscape:window-width="1920"
     inkscape:window-height="1017"
     inkscape:window-x="1358"
     inkscape:window-y="-8"
     inkscape:window-maximized="1"
     fit-margin-top="0"
     fit-margin-left="0"
     fit-margin-right="0"
     fit-margin-bottom="0"
     inkscape:showpageshadow="true"
     borderlayer="false"
     showborder="true" />
  <metadata
     id="metadata7">
    <rdf:RDF>
      <cc:Work
         rdf:about="">
        <dc:format>image/svg+xml</dc:format>
        <dc:type
           rdf:resource="http://purl.org/dc/dcmitype/StillImage" />
        <dc:title></dc:title>
      </cc:Work>
    </rdf:RDF>
  </metadata>
  <g
     inkscape:label="Calque 1"
     inkscape:groupmode="layer"
     id="layer1"
     transform="translate(-138.65603,-165.14132)">
    <g
       id="g4147"
       transform="translate(-92.875052,63.149067)">
      <path
         style="fill:#ffffff"
         d="M 452.82565,101.9931 C 449.79285,101.9851 366.5146,207.99443 255.39,353.26827 l -23.85892,31.19727 48.89789,0 48.93491,-0.0377 59.55526,-76.4814 c 37.19605,-47.76147 61.08838,-76.46443 63.5746,-76.40778 2.41974,0.0566 40.88645,47.68104 98.09107,121.39681 51.76869,66.71066 96.05329,123.31829 98.38582,125.82185 3.90376,4.18981 7.75862,4.57271 48.7136,4.57271 24.47105,0 45.11045,-0.96291 45.83734,-2.13879 1.29334,-2.09213 -129.4849,-174.95534 -277.53099,-366.84537 -5.23996,-6.79175 -11.16585,-12.34852 -13.16493,-12.35362 z m 207.39236,14.12367 c -1.37073,0 -2.50773,1.06487 -2.50773,2.36009 0,1.29521 0.49845,2.36008 1.06865,2.36008 0.57021,0 1.67094,-1.06487 2.47073,-2.36008 0.80053,-1.29522 0.33796,-2.36009 -1.03277,-2.36009 z m 9.73525,15.78312 c -0.16996,1.11394 2.44373,4.49152 7.78091,10.39907 9.09237,10.06415 9.80228,13.3896 4.94146,22.78953 -7.28625,14.09007 -8.51746,14.42067 -55.68323,15.11925 l -43.40344,0.62685 -0.66271,34.77421 c -0.43047,22.95984 0.27,36.47329 2.06498,39.8265 3.10039,5.79314 54.07251,72.08768 69.91755,90.93681 5.78559,6.88237 11.36332,11.64088 12.39043,10.58356 1.02711,-1.05732 2.60554,-40.58531 3.54012,-87.83926 l 1.73325,-85.92174 10.10417,-8.92413 c 5.55961,-4.90104 10.74555,-10.95022 11.54232,-13.45985 2.33289,-7.35042 -5.19408,-19.90569 -15.37754,-25.62898 -5.74672,-3.22991 -8.71663,-4.39673 -8.88713,-3.28202 z M 451.75624,309.12736 c -46.44282,0 -53.00009,0.48146 -57.49008,4.13015 -2.7883,2.26549 -17.47954,20.53403 -32.63562,40.60078 l -27.54651,36.47064 -15.3037,1.18005 -15.30354,1.18004 -0.58908,96.50529 -0.62683,96.50529 12.16914,12.46408 12.16934,12.46425 c 87.6042,0.0377 87.67632,-0.0154 254.07765,-0.18888 l 10.36207,-10.3991 10.36228,-10.36227 -0.6646,-80.83282 -0.6646,-80.83285 -43.2928,-55.31429 c -23.79491,-30.42374 -45.33755,-57.17914 -47.90231,-59.44463 -4.14373,-3.66059 -10.52371,-4.13015 -57.12137,-4.13015 z m 90.12573,79.06278 0,93.18645 -106.20373,0.84775 0,-78.54658 106.20373,-15.48801 z m -115.90217,16.92614 0.0377,77.25588 -80.05835,0.44181 -0.0755,-66.78297 80.09535,-10.91549 z m -80.02152,85.62681 79.98452,0.51545 0.0755,77.32971 -80.05835,-10.98931 0,-66.85661 z m 89.5725,1.06865 106.35119,0.18888 0,92.7807 -106.20373,-14.97179 -0.15103,-77.99337 z"
         id="path4157"
         inkscape:connector-curvature="0" />
    </g>
  </g>
</svg>
